<mxfile host="app.diagrams.net" modified="2023-11-12T13:50:06.618Z" agent="Mozilla/5.0 (Windows NT 10.0; Win64; x64) AppleWebKit/537.36 (KHTML, like Gecko) Chrome/119.0.0.0 Safari/537.36" etag="k9ebaT_ZBT-PIuqZHmcy" version="22.1.0" type="device">
  <diagram name="Page-1" id="pwfQz-sSOffPF5Ie87n6">
    <mxGraphModel dx="645" dy="313" grid="1" gridSize="10" guides="1" tooltips="1" connect="1" arrows="1" fold="1" page="1" pageScale="1" pageWidth="827" pageHeight="1169" math="0" shadow="0">
      <root>
        <mxCell id="0" />
        <mxCell id="1" parent="0" />
        <mxCell id="_sGpEpvZL02431Neq0mV-9" style="edgeStyle=orthogonalEdgeStyle;rounded=0;orthogonalLoop=1;jettySize=auto;html=1;entryX=0.5;entryY=0;entryDx=0;entryDy=0;exitX=0;exitY=0.5;exitDx=0;exitDy=0;" edge="1" parent="1" source="_sGpEpvZL02431Neq0mV-1" target="_sGpEpvZL02431Neq0mV-2">
          <mxGeometry relative="1" as="geometry" />
        </mxCell>
        <mxCell id="_sGpEpvZL02431Neq0mV-16" value="8444" style="edgeLabel;html=1;align=center;verticalAlign=middle;resizable=0;points=[];fontSize=9;" vertex="1" connectable="0" parent="_sGpEpvZL02431Neq0mV-9">
          <mxGeometry x="0.6952" y="-2" relative="1" as="geometry">
            <mxPoint x="22" y="37" as="offset" />
          </mxGeometry>
        </mxCell>
        <mxCell id="_sGpEpvZL02431Neq0mV-10" style="edgeStyle=orthogonalEdgeStyle;rounded=0;orthogonalLoop=1;jettySize=auto;html=1;entryX=0.5;entryY=0;entryDx=0;entryDy=0;exitX=0;exitY=0.5;exitDx=0;exitDy=0;" edge="1" parent="1" source="_sGpEpvZL02431Neq0mV-1" target="_sGpEpvZL02431Neq0mV-3">
          <mxGeometry relative="1" as="geometry" />
        </mxCell>
        <mxCell id="_sGpEpvZL02431Neq0mV-17" value="8447" style="edgeLabel;html=1;align=center;verticalAlign=middle;resizable=0;points=[];fontSize=9;" vertex="1" connectable="0" parent="_sGpEpvZL02431Neq0mV-10">
          <mxGeometry x="0.6176" y="2" relative="1" as="geometry">
            <mxPoint x="18" y="30" as="offset" />
          </mxGeometry>
        </mxCell>
        <mxCell id="_sGpEpvZL02431Neq0mV-11" style="edgeStyle=orthogonalEdgeStyle;rounded=0;orthogonalLoop=1;jettySize=auto;html=1;entryX=0.5;entryY=0;entryDx=0;entryDy=0;exitX=0;exitY=0.5;exitDx=0;exitDy=0;" edge="1" parent="1" source="_sGpEpvZL02431Neq0mV-1" target="_sGpEpvZL02431Neq0mV-5">
          <mxGeometry relative="1" as="geometry" />
        </mxCell>
        <mxCell id="_sGpEpvZL02431Neq0mV-18" value="8446" style="edgeLabel;html=1;align=center;verticalAlign=middle;resizable=0;points=[];fontSize=9;" vertex="1" connectable="0" parent="_sGpEpvZL02431Neq0mV-11">
          <mxGeometry x="0.5385" y="-1" relative="1" as="geometry">
            <mxPoint x="16" y="15" as="offset" />
          </mxGeometry>
        </mxCell>
        <mxCell id="_sGpEpvZL02431Neq0mV-14" style="edgeStyle=orthogonalEdgeStyle;rounded=0;orthogonalLoop=1;jettySize=auto;html=1;entryX=0.5;entryY=0;entryDx=0;entryDy=0;" edge="1" parent="1" source="_sGpEpvZL02431Neq0mV-1" target="_sGpEpvZL02431Neq0mV-7">
          <mxGeometry relative="1" as="geometry" />
        </mxCell>
        <mxCell id="_sGpEpvZL02431Neq0mV-21" value="8449" style="edgeLabel;html=1;align=center;verticalAlign=middle;resizable=0;points=[];fontSize=9;" vertex="1" connectable="0" parent="_sGpEpvZL02431Neq0mV-14">
          <mxGeometry x="0.5824" y="-3" relative="1" as="geometry">
            <mxPoint x="23" y="12" as="offset" />
          </mxGeometry>
        </mxCell>
        <mxCell id="_sGpEpvZL02431Neq0mV-15" style="edgeStyle=orthogonalEdgeStyle;rounded=0;orthogonalLoop=1;jettySize=auto;html=1;entryX=0.5;entryY=0;entryDx=0;entryDy=0;" edge="1" parent="1" source="_sGpEpvZL02431Neq0mV-1" target="_sGpEpvZL02431Neq0mV-8">
          <mxGeometry relative="1" as="geometry" />
        </mxCell>
        <mxCell id="_sGpEpvZL02431Neq0mV-19" value="8448" style="edgeLabel;html=1;align=center;verticalAlign=middle;resizable=0;points=[];fontSize=9;" vertex="1" connectable="0" parent="_sGpEpvZL02431Neq0mV-15">
          <mxGeometry x="0.6667" relative="1" as="geometry">
            <mxPoint x="20" y="24" as="offset" />
          </mxGeometry>
        </mxCell>
        <mxCell id="_sGpEpvZL02431Neq0mV-1" value="Gateway" style="rounded=1;whiteSpace=wrap;html=1;" vertex="1" parent="1">
          <mxGeometry x="360" y="200" width="100" height="40" as="geometry" />
        </mxCell>
        <mxCell id="_sGpEpvZL02431Neq0mV-2" value="Web UI" style="rounded=1;whiteSpace=wrap;html=1;fontSize=11;" vertex="1" parent="1">
          <mxGeometry x="30" y="310" width="100" height="40" as="geometry" />
        </mxCell>
        <mxCell id="_sGpEpvZL02431Neq0mV-3" value="Inventory server" style="rounded=1;whiteSpace=wrap;html=1;fontSize=11;" vertex="1" parent="1">
          <mxGeometry x="140" y="310" width="100" height="40" as="geometry" />
        </mxCell>
        <mxCell id="_sGpEpvZL02431Neq0mV-5" value="Data collector" style="rounded=1;whiteSpace=wrap;html=1;fontSize=11;" vertex="1" parent="1">
          <mxGeometry x="250" y="310" width="100" height="40" as="geometry" />
        </mxCell>
        <mxCell id="_sGpEpvZL02431Neq0mV-6" value="Portfolio trader" style="rounded=1;whiteSpace=wrap;html=1;fontSize=11;" vertex="1" parent="1">
          <mxGeometry x="360" y="310" width="100" height="40" as="geometry" />
        </mxCell>
        <mxCell id="_sGpEpvZL02431Neq0mV-7" value="System adapter" style="rounded=1;whiteSpace=wrap;html=1;fontSize=11;" vertex="1" parent="1">
          <mxGeometry x="470" y="310" width="100" height="40" as="geometry" />
        </mxCell>
        <mxCell id="_sGpEpvZL02431Neq0mV-8" value="Keycloak" style="rounded=1;whiteSpace=wrap;html=1;fontSize=11;" vertex="1" parent="1">
          <mxGeometry x="580" y="310" width="100" height="40" as="geometry" />
        </mxCell>
        <mxCell id="_sGpEpvZL02431Neq0mV-12" style="edgeStyle=orthogonalEdgeStyle;rounded=0;orthogonalLoop=1;jettySize=auto;html=1;" edge="1" parent="1" source="_sGpEpvZL02431Neq0mV-1" target="_sGpEpvZL02431Neq0mV-6">
          <mxGeometry relative="1" as="geometry" />
        </mxCell>
        <mxCell id="_sGpEpvZL02431Neq0mV-20" value="8445" style="edgeLabel;html=1;align=center;verticalAlign=middle;resizable=0;points=[];fontSize=9;" vertex="1" connectable="0" parent="_sGpEpvZL02431Neq0mV-12">
          <mxGeometry x="0.5308" y="1" relative="1" as="geometry">
            <mxPoint x="14" y="-3" as="offset" />
          </mxGeometry>
        </mxCell>
        <mxCell id="_sGpEpvZL02431Neq0mV-22" value="MySQL" style="shape=cylinder3;whiteSpace=wrap;html=1;boundedLbl=1;backgroundOutline=1;size=6.899993896484375;fontSize=9;" vertex="1" parent="1">
          <mxGeometry x="170" y="390" width="40" height="30" as="geometry" />
        </mxCell>
        <mxCell id="_sGpEpvZL02431Neq0mV-23" value="MySQL" style="shape=cylinder3;whiteSpace=wrap;html=1;boundedLbl=1;backgroundOutline=1;size=6.899993896484375;fontSize=9;" vertex="1" parent="1">
          <mxGeometry x="250" y="390" width="40" height="30" as="geometry" />
        </mxCell>
        <mxCell id="_sGpEpvZL02431Neq0mV-24" value="MySQL" style="shape=cylinder3;whiteSpace=wrap;html=1;boundedLbl=1;backgroundOutline=1;size=6.899993896484375;fontSize=9;" vertex="1" parent="1">
          <mxGeometry x="390" y="390" width="40" height="30" as="geometry" />
        </mxCell>
        <mxCell id="_sGpEpvZL02431Neq0mV-25" value="MySQL" style="shape=cylinder3;whiteSpace=wrap;html=1;boundedLbl=1;backgroundOutline=1;size=6.899993896484375;fontSize=9;" vertex="1" parent="1">
          <mxGeometry x="610" y="390" width="40" height="30" as="geometry" />
        </mxCell>
        <mxCell id="_sGpEpvZL02431Neq0mV-26" style="edgeStyle=orthogonalEdgeStyle;rounded=0;orthogonalLoop=1;jettySize=auto;html=1;entryX=0.5;entryY=0;entryDx=0;entryDy=0;entryPerimeter=0;" edge="1" parent="1" source="_sGpEpvZL02431Neq0mV-8" target="_sGpEpvZL02431Neq0mV-25">
          <mxGeometry relative="1" as="geometry" />
        </mxCell>
        <mxCell id="_sGpEpvZL02431Neq0mV-27" value="3403" style="edgeLabel;html=1;align=center;verticalAlign=middle;resizable=0;points=[];fontSize=9;" vertex="1" connectable="0" parent="_sGpEpvZL02431Neq0mV-26">
          <mxGeometry x="-0.12" y="2" relative="1" as="geometry">
            <mxPoint x="18" as="offset" />
          </mxGeometry>
        </mxCell>
        <mxCell id="_sGpEpvZL02431Neq0mV-28" style="edgeStyle=orthogonalEdgeStyle;rounded=0;orthogonalLoop=1;jettySize=auto;html=1;entryX=0.5;entryY=0;entryDx=0;entryDy=0;entryPerimeter=0;" edge="1" parent="1" source="_sGpEpvZL02431Neq0mV-6" target="_sGpEpvZL02431Neq0mV-24">
          <mxGeometry relative="1" as="geometry" />
        </mxCell>
        <mxCell id="_sGpEpvZL02431Neq0mV-29" value="3401" style="edgeLabel;html=1;align=center;verticalAlign=middle;resizable=0;points=[];fontSize=9;" vertex="1" connectable="0" parent="_sGpEpvZL02431Neq0mV-28">
          <mxGeometry x="0.08" y="1" relative="1" as="geometry">
            <mxPoint x="14" as="offset" />
          </mxGeometry>
        </mxCell>
        <mxCell id="_sGpEpvZL02431Neq0mV-30" style="edgeStyle=orthogonalEdgeStyle;rounded=0;orthogonalLoop=1;jettySize=auto;html=1;entryX=0.5;entryY=0;entryDx=0;entryDy=0;entryPerimeter=0;exitX=0.5;exitY=1;exitDx=0;exitDy=0;" edge="1" parent="1" source="_sGpEpvZL02431Neq0mV-5" target="_sGpEpvZL02431Neq0mV-23">
          <mxGeometry relative="1" as="geometry" />
        </mxCell>
        <mxCell id="_sGpEpvZL02431Neq0mV-31" value="3402" style="edgeLabel;html=1;align=center;verticalAlign=middle;resizable=0;points=[];fontSize=9;" vertex="1" connectable="0" parent="_sGpEpvZL02431Neq0mV-30">
          <mxGeometry x="0.14" y="-1" relative="1" as="geometry">
            <mxPoint y="-9" as="offset" />
          </mxGeometry>
        </mxCell>
        <mxCell id="_sGpEpvZL02431Neq0mV-32" style="edgeStyle=orthogonalEdgeStyle;rounded=0;orthogonalLoop=1;jettySize=auto;html=1;entryX=0.5;entryY=0;entryDx=0;entryDy=0;entryPerimeter=0;" edge="1" parent="1" source="_sGpEpvZL02431Neq0mV-3" target="_sGpEpvZL02431Neq0mV-22">
          <mxGeometry relative="1" as="geometry" />
        </mxCell>
        <mxCell id="_sGpEpvZL02431Neq0mV-33" value="3400" style="edgeLabel;html=1;align=center;verticalAlign=middle;resizable=0;points=[];fontSize=9;" vertex="1" connectable="0" parent="_sGpEpvZL02431Neq0mV-32">
          <mxGeometry relative="1" as="geometry">
            <mxPoint x="20" as="offset" />
          </mxGeometry>
        </mxCell>
        <mxCell id="_sGpEpvZL02431Neq0mV-35" style="edgeStyle=orthogonalEdgeStyle;rounded=0;orthogonalLoop=1;jettySize=auto;html=1;entryX=0.5;entryY=0;entryDx=0;entryDy=0;" edge="1" parent="1" source="_sGpEpvZL02431Neq0mV-34" target="_sGpEpvZL02431Neq0mV-1">
          <mxGeometry relative="1" as="geometry" />
        </mxCell>
        <mxCell id="_sGpEpvZL02431Neq0mV-36" value="8443" style="edgeLabel;html=1;align=center;verticalAlign=middle;resizable=0;points=[];fontSize=9;" vertex="1" connectable="0" parent="_sGpEpvZL02431Neq0mV-35">
          <mxGeometry x="-0.0104" y="4" relative="1" as="geometry">
            <mxPoint x="15" y="-1" as="offset" />
          </mxGeometry>
        </mxCell>
        <mxCell id="_sGpEpvZL02431Neq0mV-34" value="" style="sketch=0;outlineConnect=0;fontColor=#232F3E;gradientColor=none;fillColor=#232F3D;strokeColor=none;dashed=0;verticalLabelPosition=bottom;verticalAlign=top;align=center;html=1;fontSize=12;fontStyle=0;aspect=fixed;pointerEvents=1;shape=mxgraph.aws4.user;" vertex="1" parent="1">
          <mxGeometry x="395" y="120" width="30" height="30" as="geometry" />
        </mxCell>
        <mxCell id="_sGpEpvZL02431Neq0mV-39" value="Influx" style="shape=cylinder3;whiteSpace=wrap;html=1;boundedLbl=1;backgroundOutline=1;size=6.899993896484375;fontSize=9;" vertex="1" parent="1">
          <mxGeometry x="310" y="390" width="40" height="30" as="geometry" />
        </mxCell>
        <mxCell id="_sGpEpvZL02431Neq0mV-41" style="edgeStyle=orthogonalEdgeStyle;rounded=0;orthogonalLoop=1;jettySize=auto;html=1;entryX=0.5;entryY=0;entryDx=0;entryDy=0;entryPerimeter=0;exitX=0.5;exitY=1;exitDx=0;exitDy=0;" edge="1" parent="1" source="_sGpEpvZL02431Neq0mV-5" target="_sGpEpvZL02431Neq0mV-39">
          <mxGeometry relative="1" as="geometry">
            <Array as="points">
              <mxPoint x="300" y="370" />
              <mxPoint x="330" y="370" />
            </Array>
          </mxGeometry>
        </mxCell>
        <mxCell id="_sGpEpvZL02431Neq0mV-45" value="3410" style="edgeLabel;html=1;align=center;verticalAlign=middle;resizable=0;points=[];fontSize=9;" vertex="1" connectable="0" parent="_sGpEpvZL02431Neq0mV-41">
          <mxGeometry x="0.0457" relative="1" as="geometry">
            <mxPoint y="-10" as="offset" />
          </mxGeometry>
        </mxCell>
      </root>
    </mxGraphModel>
  </diagram>
</mxfile>
